<?xml version="1.0" encoding="iso-8859-1"?>
<!-- Generator: Adobe Illustrator 19.0.0, SVG Export Plug-In . SVG Version: 6.00 Build 0)  -->
<svg version="1.1" id="Capa_1" xmlns="http://www.w3.org/2000/svg" xmlns:xlink="http://www.w3.org/1999/xlink" x="0px" y="0px"
	 viewBox="0 0 496.485 496.485" style="enable-background:new 0 0 496.485 496.485;" xml:space="preserve">
<path style="fill:#F3F3F3;" d="M392.851,441.934H103.649c0-43.132,13.033-84.092,35.995-118.381
	c21.566-32.272,51.976-58.647,88.592-75.248C152.522,213.706,103.649,138.147,103.649,54.52h289.202
	c0,43.132-13.033,84.092-35.995,118.381c-21.566,32.272-51.976,58.647-88.592,75.404
	C343.979,282.748,392.851,358.462,392.851,441.934z"/>
<path style="fill:#E5E5E5;" d="M228.236,248.304c-36.616,16.601-67.025,42.977-88.592,75.248
	c-22.962,34.288-35.995,75.249-35.995,118.381h162.459c12.055,0,22.807-9.03,23.521-21.085c0.574-12.909-9.604-23.521-22.373-23.521
	l-40.976-0.031c-12.722,0-22.962-10.643-22.295-23.521c0.636-12.071,11.466-21.116,23.552-21.116h44.87
	c12.024-0.341,21.737-10.193,21.737-22.311c0-12.335-10.038-22.373-22.373-22.373H205.32c-9.837,0-18.649-7.09-18.649-20.371
	c-0.714-10.178,7.463-18.789,17.641-18.789h43.148c11.543,0,21.69-8.145,23.366-19.223c-0.869-0.403-1.691-0.884-2.56-1.272
	c0.962-0.434,1.862-0.962,2.808-1.412c0.109-12.521-9.837-22.699-22.326-22.699h-15.903c-11.264,0-19.766-9.992-18.649-20.077
	v-0.295c-0.14-10.907,8.751-19.797,19.642-19.797h5.136c12.195,0,22.947-9.03,23.661-21.225
	c0.574-12.769-9.604-23.521-22.373-23.521h-10.597c-10.752,0-18.789-9.03-18.649-19.797c0.171-13.048,8.921-20.371,18.649-20.371
	h15.112c12.055,0,22.807-9.03,23.521-21.085c0.574-12.909-9.604-23.521-22.373-23.521H103.649
	C103.649,138.147,152.522,213.706,228.236,248.304z"/>
<g>
	<path style="fill:#FFBD49;" d="M161.583,149.861c19.596,31.915,48.314,57.313,86.652,73.34
		c37.609-15.624,66.777-40.976,86.652-73.34H161.583z"/>
	<path style="fill:#FFBD49;" d="M137.363,410.888c10.085-58.818,48.624-111.569,110.871-137.619
		c61.999,25.926,100.755,78.538,110.871,137.619L137.363,410.888L137.363,410.888z"/>
</g>
<path style="fill:#ED6262;" d="M416.279,0H80.206C65.14,0,52.93,12.21,52.93,27.276s12.195,27.276,27.276,27.276h336.074
	c15.065,0,27.276-12.21,27.276-27.276S431.345,0,416.279,0z"/>
<path style="fill:#DD5E5E;" d="M189.712,40.913c0-7.633-6.004-13.638-13.638-13.638h32.194c7.463,0,13.638-6.175,13.638-13.638
	C221.905,6.004,215.715,0,208.268,0H80.206C65.14,0,52.93,12.21,52.93,27.276s12.21,27.276,27.276,27.276h95.884
	C183.723,54.551,189.712,48.376,189.712,40.913z"/>
<path style="fill:#ED6262;" d="M416.279,441.934H80.206c-15.065,0-27.276,12.21-27.276,27.276c0,15.065,12.21,27.276,27.276,27.276
	h336.074c15.065,0,27.276-12.21,27.276-27.276C443.555,454.144,431.345,441.934,416.279,441.934z"/>
<path style="fill:#DD5E5E;" d="M306.758,455.571c0,7.633,6.004,13.638,13.638,13.638h-32.194c-7.463,0-13.638,6.175-13.638,13.638
	c0,7.633,6.191,13.638,13.638,13.638h128.062c15.065,0,27.276-12.21,27.276-27.276c0-15.065-12.21-27.276-27.276-27.276H320.38
	C312.747,441.934,306.758,448.109,306.758,455.571z"/>
<g>
</g>
<g>
</g>
<g>
</g>
<g>
</g>
<g>
</g>
<g>
</g>
<g>
</g>
<g>
</g>
<g>
</g>
<g>
</g>
<g>
</g>
<g>
</g>
<g>
</g>
<g>
</g>
<g>
</g>
</svg>
