<svg id="Capa_1" enable-background="new 0 0 512 512" height="512" viewBox="0 0 512 512" width="512" xmlns="http://www.w3.org/2000/svg"><g><path d="m481.512 167.12h-11.258c16.838 0 30.488-13.65 30.488-30.488v-11.258c0-16.838-13.65-30.488-30.488-30.488h-28.652c13.423 0 24.304-10.881 24.304-24.304v-20.558c0-13.423-10.881-24.304-24.304-24.304h-144.687c-24.322 0-46.77 7.973-64.905 21.435-11.172 8.294-24.833 12.545-38.747 12.545h-72.374l-53.876 179.654h84.877c22.417 0 42.039 15.057 47.841 36.71l54.421 203.103c1.124 4.195 4.926 7.113 9.27 7.113 24.839 0 44.975-20.136 44.975-44.975v-101.45c0-15.611 12.655-28.266 28.266-28.266h133.591c16.838 0 30.488-13.65 30.488-30.488v-11.258c0-16.838-13.65-30.488-30.488-30.488h11.258c16.838 0 30.488-13.65 30.488-30.488v-11.258c0-16.839-13.65-30.489-30.488-30.489z" fill="#ffcbbe"/><path d="m481.512 167.12h-11.258c16.838 0 30.488-13.65 30.488-30.488v-11.258c0-16.838-13.65-30.488-30.488-30.488h-28.652c13.423 0 24.304-10.881 24.304-24.304v-20.558c0-13.423-10.881-24.304-24.304-24.304h-17.183c.184 1.206.28 2.442.28 3.7v203.451c0 32.095-26.018 58.113-58.113 58.113h-38.506c-33.629 0-60.891 27.262-60.891 60.891v68.826c0 15.113-7.454 28.484-18.886 36.639l5.849 21.827c1.124 4.195 4.926 7.113 9.27 7.113 24.839 0 44.975-20.136 44.975-44.975v-101.45c0-15.611 12.655-28.266 28.266-28.266h133.591c16.838 0 30.488-13.65 30.488-30.488v-11.258c0-16.838-13.65-30.488-30.488-30.488h11.258c16.838 0 30.488-13.65 30.488-30.488v-11.258c0-16.839-13.65-30.489-30.488-30.489z" fill="#eaac9d"/><path d="m508.04 223.901c-5.241 9.228-15.158 15.453-26.529 15.453h-73.578c-4.268 0-7.726-3.459-7.726-7.726s3.459-7.726 7.726-7.726h100.107zm-107.833-64.507c0 4.267 3.459 7.726 7.726 7.726h73.597c-.006 0-.013 0-.019 0h-11.258c11.371 0 21.287-6.225 26.529-15.453h-88.849c-4.267 0-7.726 3.459-7.726 7.727zm0-72.235c0 4.267 3.459 7.726 7.726 7.726h33.668c10.3 0 19.103-6.407 22.642-15.453h-56.31c-4.267.001-7.726 3.46-7.726 7.727z" fill="#eaac9d"/><g fill="#df9380"><path d="m508.04 223.901h-83.342v8.97c0 2.191-.122 4.354-.358 6.483h57.171c11.372 0 21.288-6.225 26.529-15.453z"/><path d="m424.698 167.12h56.833c-.006 0-.013 0-.019 0h-11.258c11.371 0 21.287-6.225 26.529-15.453h-72.084v15.453z"/><path d="m441.611 94.885c10.296-.004 19.094-6.41 22.632-15.453h-39.545v15.453z"/></g><path d="m8.37 267.875h104.148c4.623 0 8.37-3.748 8.37-8.37v-199.805h-112.518c-4.622 0-8.37 3.748-8.37 8.371v191.433c0 4.623 3.748 8.371 8.37 8.371z" fill="#da387d"/><path d="m79.681 59.7v139.699c0 26.439-21.433 47.872-47.872 47.872h-31.809v12.233c0 4.623 3.748 8.37 8.37 8.37h104.148c4.623 0 8.37-3.747 8.37-8.37v-199.804z" fill="#d80a61"/><circle cx="60.444" cy="211.374" fill="#f9c6da" r="21.488"/><path d="m67.013 231.839c8.655-2.776 14.919-10.889 14.919-20.465 0-3.487-.831-6.781-2.305-9.693-.545 11.616-5.23 22.15-12.614 30.158z" fill="#efa5c3"/></g></svg>